<svg width="958" height="291" viewBox="0 0 958 291" fill="none" xmlns="http://www.w3.org/2000/svg">
<g clip-path="url(#clip0_1_2942)">
<path d="M268 108.8C240.9 55.7 199.7 35.5 177.7 27.5C162.4 21.1 145.7 17.5 128 17.5C57.3 17.5 0 74.8 0 145.5C0 216.2 57.3 273.5 128 273.5C192.3 273.5 245.4 226.2 254.6 164.5C257.7 174 256.4 184.2 255.1 188.8C271.4 148.7 262.8 111.7 256.5 98.2C263.4 102.5 266.9 106.9 268 108.8Z" fill="#2A333C"/>
<path d="M96 263C190.3 277.2 229.3 210.4 236.9 171.5C238.3 152.5 231.9 145.4 229.8 142.5C227.9 175.7 210.3 214.3 192.2 227.5C202.4 214.4 204 200.7 203.2 197.6C171.2 260 117.3 265 96 263Z" fill="#A4B8C9"/>
<path d="M96.3 222.2C129.5 213.9 141.8 179.9 145 164.3C132.9 226.6 78.5 239.9 49.2 237.2C35 226.3 21.3 203.4 16 189.4C24.1 203.9 54.7 232.6 96.3 222.2Z" fill="#A4B8C9"/>
<path d="M134.6 40.5C144.1 37.1 153.5 38.7 156.6 39.6C156 47.1 154.4 55.1 153.8 57.3C153 51.7 140.2 43.8 134.6 40.5Z" fill="#A4B8C9"/>
<path d="M228 84.5C235.3 87.9 239.1 91.8 240.4 93.5C217.5 46 172.6 30.3 156.9 27.5C158 63.1 139.6 133.4 57.2 127.7C58.2 132.5 62.8 140 67.7 144.3C91.6 165.4 129.9 165.5 145 164.3C132.4 228.1 75.1 239.9 49 237C65.5 252 87.6 261.4 96.1 263C156.7 268.2 193.4 221 203.2 197.6C204 209.7 195.3 223.9 192.2 227.5C218.5 207.8 229.1 161.2 229.9 142.9C237.5 152.8 237.5 166.7 236.6 172.4C248 131.7 235.6 96.9 228 84.5ZM165.6 114.4C158.9 118.1 151.8 117 149.5 116.7C149.1 114.4 150 109.9 152.3 106.9C154.3 104.3 157.8 101.2 164.5 101.2C169.8 101.2 174.9 103.8 176.4 105C175.1 106.5 171.8 111 165.6 114.4Z" fill="#E5EBED"/>
</g>
<path id="svg-logo-text" d="M381.92 202.56C381.92 207.36 382.4 210.96 383.36 213.36C384.32 215.6 386.08 217.12 388.64 217.92C391.36 218.72 395.6 219.12 401.36 219.12C401.68 219.12 401.84 219.6 401.84 220.56C401.84 221.52 401.68 222 401.36 222C396.24 222 392.24 221.92 389.36 221.76L372.08 221.52L355.28 221.76C352.24 221.92 348.08 222 342.8 222C342.48 222 342.32 221.52 342.32 220.56C342.32 219.6 342.48 219.12 342.8 219.12C348.56 219.12 352.8 218.72 355.52 217.92C358.24 217.12 360.08 215.6 361.04 213.36C362 210.96 362.48 207.36 362.48 202.56V91.44C362.48 86.64 362 83.12 361.04 80.88C360.08 78.64 358.24 77.12 355.52 76.32C352.8 75.36 348.56 74.88 342.8 74.88C342.48 74.88 342.32 74.4 342.32 73.44C342.32 72.48 342.48 72 342.8 72L355.28 72.24C362.32 72.56 367.92 72.72 372.08 72.72C376.72 72.72 382.56 72.56 389.6 72.24L401.36 72C401.68 72 401.84 72.48 401.84 73.44C401.84 74.4 401.68 74.88 401.36 74.88C395.76 74.88 391.6 75.36 388.88 76.32C386.16 77.28 384.32 78.96 383.36 81.36C382.4 83.6 381.92 87.12 381.92 91.92V202.56ZM460.151 76.8C450.231 76.8 442.471 79.6 436.871 85.2C431.271 90.64 427.111 99.44 424.391 111.6C424.231 111.92 423.671 112.08 422.711 112.08C421.911 112.08 421.511 111.92 421.511 111.6C422.151 106.96 422.871 99.6 423.671 89.52C424.471 79.44 424.871 71.84 424.871 66.72C424.871 65.92 425.351 65.52 426.311 65.52C427.271 65.52 427.751 65.92 427.751 66.72C427.751 70.24 432.151 72 440.951 72C454.551 72.48 470.631 72.72 489.191 72.72C498.631 72.72 508.631 72.56 519.191 72.24L535.511 72C541.431 72 545.751 71.6 548.471 70.8C551.191 70 552.951 68.4 553.751 66C553.911 65.36 554.391 65.04 555.191 65.04C556.151 65.04 556.631 65.36 556.631 66C556.151 70.48 555.591 77.68 554.951 87.6C554.471 97.52 554.231 105.52 554.231 111.6C554.231 111.92 553.751 112.08 552.791 112.08C551.991 112.08 551.591 111.92 551.591 111.6C550.471 99.28 547.271 90.4 541.991 84.96C536.711 79.52 528.871 76.8 518.471 76.8C512.551 76.8 508.311 77.2 505.751 78C503.191 78.64 501.431 80 500.471 82.08C499.511 84 499.031 87.28 499.031 91.92V202.56C499.031 207.52 499.511 211.12 500.471 213.36C501.591 215.6 503.671 217.12 506.711 217.92C509.751 218.72 514.631 219.12 521.351 219.12C521.671 219.12 521.831 219.6 521.831 220.56C521.831 221.52 521.671 222 521.351 222C515.751 222 511.351 221.92 508.151 221.76L489.191 221.52L470.711 221.76C467.511 221.92 463.031 222 457.271 222C456.791 222 456.551 221.52 456.551 220.56C456.551 219.6 456.791 219.12 457.271 219.12C463.831 219.12 468.631 218.72 471.671 217.92C474.711 217.12 476.791 215.6 477.911 213.36C479.031 210.96 479.591 207.36 479.591 202.56V91.44C479.591 86.96 479.111 83.76 478.151 81.84C477.191 79.76 475.431 78.4 472.871 77.76C470.311 77.12 466.071 76.8 460.151 76.8ZM739.203 219.12C739.683 219.12 739.923 219.6 739.923 220.56C739.923 221.52 739.683 222 739.203 222C734.083 222 730.003 221.92 726.963 221.76L709.683 221.52L690.723 221.76C688.003 221.92 684.243 222 679.443 222C678.963 222 678.723 221.52 678.723 220.56C678.723 219.6 678.963 219.12 679.443 219.12C685.523 219.12 690.003 218.72 692.883 217.92C695.763 217.12 697.683 215.6 698.643 213.36C699.603 210.96 700.083 207.36 700.083 202.56V146.64H612.723V202.56C612.723 207.36 613.203 210.96 614.163 213.36C615.123 215.6 617.043 217.12 619.923 217.92C622.803 218.72 627.283 219.12 633.363 219.12C633.683 219.12 633.843 219.6 633.843 220.56C633.843 221.52 633.683 222 633.363 222C628.243 222 624.163 221.92 621.123 221.76L602.643 221.52L585.603 221.76C582.563 221.92 578.403 222 573.123 222C572.803 222 572.643 221.52 572.643 220.56C572.643 219.6 572.803 219.12 573.123 219.12C579.043 219.12 583.363 218.72 586.083 217.92C588.963 217.12 590.883 215.6 591.843 213.36C592.963 210.96 593.523 207.36 593.523 202.56V91.44C593.523 86.64 593.043 83.12 592.083 80.88C591.123 78.64 589.283 77.12 586.563 76.32C583.843 75.36 579.523 74.88 573.603 74.88C573.123 74.88 572.883 74.4 572.883 73.44C572.883 72.48 573.123 72 573.603 72L585.843 72.24C592.563 72.56 598.163 72.72 602.643 72.72C607.763 72.72 614.003 72.56 621.363 72.24L633.363 72C633.683 72 633.843 72.48 633.843 73.44C633.843 74.4 633.683 74.88 633.363 74.88C627.443 74.88 623.043 75.36 620.163 76.32C617.283 77.28 615.283 78.96 614.163 81.36C613.203 83.6 612.723 87.12 612.723 91.92V141.12H700.083V91.92C700.083 87.12 699.523 83.6 698.403 81.36C697.443 78.96 695.523 77.28 692.643 76.32C689.923 75.36 685.523 74.88 679.443 74.88C678.963 74.88 678.723 74.4 678.723 73.44C678.723 72.48 678.963 72 679.443 72L690.723 72.24C698.083 72.56 704.403 72.72 709.683 72.72C714.163 72.72 719.923 72.56 726.963 72.24L739.203 72C739.683 72 739.923 72.48 739.923 73.44C739.923 74.4 739.683 74.88 739.203 74.88C733.283 74.88 728.963 75.36 726.243 76.32C723.523 77.12 721.603 78.64 720.483 80.88C719.523 83.12 719.043 86.64 719.043 91.44V202.56C719.043 207.36 719.523 210.96 720.483 213.36C721.603 215.6 723.523 217.12 726.243 217.92C728.963 218.72 733.283 219.12 739.203 219.12ZM797.701 202.56C797.701 207.36 798.181 210.96 799.141 213.36C800.101 215.6 801.861 217.12 804.421 217.92C807.141 218.72 811.381 219.12 817.141 219.12C817.461 219.12 817.621 219.6 817.621 220.56C817.621 221.52 817.461 222 817.141 222C812.021 222 808.021 221.92 805.141 221.76L787.861 221.52L771.061 221.76C768.021 221.92 763.861 222 758.581 222C758.261 222 758.101 221.52 758.101 220.56C758.101 219.6 758.261 219.12 758.581 219.12C764.341 219.12 768.581 218.72 771.301 217.92C774.021 217.12 775.861 215.6 776.821 213.36C777.781 210.96 778.261 207.36 778.261 202.56V91.44C778.261 86.64 777.781 83.12 776.821 80.88C775.861 78.64 774.021 77.12 771.301 76.32C768.581 75.36 764.341 74.88 758.581 74.88C758.261 74.88 758.101 74.4 758.101 73.44C758.101 72.48 758.261 72 758.581 72L771.061 72.24C778.101 72.56 783.701 72.72 787.861 72.72C792.501 72.72 798.341 72.56 805.381 72.24L817.141 72C817.461 72 817.621 72.48 817.621 73.44C817.621 74.4 817.461 74.88 817.141 74.88C811.541 74.88 807.381 75.36 804.661 76.32C801.941 77.28 800.101 78.96 799.141 81.36C798.181 83.6 797.701 87.12 797.701 91.92V202.56ZM874.732 201.6C874.732 206.08 875.132 209.36 875.932 211.44C876.892 213.36 878.572 214.72 880.972 215.52C883.372 216.16 887.132 216.48 892.252 216.48H912.652C922.732 216.48 931.052 213.52 937.612 207.6C944.332 201.52 948.812 193.36 951.052 183.12C951.052 182.64 951.452 182.48 952.252 182.64C953.212 182.64 953.692 182.88 953.692 183.36C952.252 197.44 951.532 209.12 951.532 218.4C951.532 219.68 951.212 220.64 950.572 221.28C950.092 221.76 949.212 222 947.932 222H836.092C835.772 222 835.612 221.52 835.612 220.56C835.612 219.6 835.772 219.12 836.092 219.12C841.852 219.12 846.012 218.72 848.572 217.92C851.292 217.12 853.132 215.6 854.092 213.36C855.052 210.96 855.532 207.36 855.532 202.56V91.44C855.532 86.64 855.052 83.12 854.092 80.88C853.132 78.64 851.292 77.12 848.572 76.32C846.012 75.36 841.852 74.88 836.092 74.88C835.772 74.88 835.612 74.4 835.612 73.44C835.612 72.48 835.772 72 836.092 72L848.092 72.24C855.132 72.56 860.812 72.72 865.132 72.72C869.452 72.72 875.132 72.56 882.172 72.24L894.172 72C894.492 72 894.652 72.48 894.652 73.44C894.652 74.4 894.492 74.88 894.172 74.88C888.572 74.88 884.412 75.36 881.692 76.32C878.972 77.12 877.132 78.72 876.172 81.12C875.212 83.36 874.732 86.88 874.732 91.68V201.6Z" fill="#2A333C"/>
<defs>
<clipPath id="clip0_1_2942">
<rect width="268" height="256" fill="white" transform="translate(0 17.5)"/>
</clipPath>
</defs>
</svg>
