<svg width="118" height="32" viewBox="0 0 118 32" fill="none" xmlns="http://www.w3.org/2000/svg">
<path d="M12 30.6875C23.7875 32.4625 28.6625 24.1125 29.6125 19.25C29.7875 16.875 28.9875 15.9875 28.725 15.625C28.4875 19.775 26.2875 24.6 24.025 26.25C25.3 24.6125 25.5 22.9 25.4 22.5125C21.4 30.3125 14.6625 30.9375 12 30.6875Z" fill="#A4B8C9"/>
<path d="M12.0375 25.5875C16.1875 24.55 17.725 20.3 18.125 18.35C16.6125 26.1375 9.8125 27.8 6.15 27.4625C4.375 26.1 2.6625 23.2375 2 21.4875C3.0125 23.3 6.8375 26.8875 12.0375 25.5875Z" fill="#A4B8C9"/>
<path d="M16.825 2.875C18.0125 2.45 19.1875 2.65 19.575 2.7625C19.5 3.7 19.3 4.7 19.225 4.975C19.125 4.275 17.525 3.2875 16.825 2.875Z" fill="#A4B8C9"/>
<path d="M28.5 8.375C29.4125 8.8 29.8875 9.2875 30.05 9.5C27.1875 3.5625 21.575 1.6 19.6125 1.25C19.75 5.7 17.45 14.4875 7.15 13.775C7.275 14.375 7.85 15.3125 8.4625 15.85C11.45 18.4875 16.2375 18.5 18.125 18.35C16.55 26.325 9.3875 27.8 6.125 27.4375C8.1875 29.3125 10.95 30.4875 12.0125 30.6875C19.5875 31.3375 24.175 25.4375 25.4 22.5125C25.5 24.025 24.4125 25.8 24.025 26.25C27.3125 23.7875 28.6375 17.9625 28.7375 15.675C29.6875 16.9125 29.6875 18.65 29.575 19.3625C31 14.275 29.45 9.925 28.5 8.375ZM20.7 12.1125C19.8625 12.575 18.975 12.4375 18.6875 12.4C18.6375 12.1125 18.75 11.55 19.0375 11.175C19.2875 10.85 19.725 10.4625 20.5625 10.4625C21.225 10.4625 21.8625 10.7875 22.05 10.9375C21.8875 11.125 21.475 11.6875 20.7 12.1125Z" fill="#E5EBED"/>
<path d="M46.4551 23.3039C46.4551 23.9079 46.5151 24.3609 46.6353 24.6628C46.7554 24.9447 46.9756 25.136 47.2959 25.2366C47.6363 25.3373 48.1668 25.3876 48.8876 25.3876C48.9276 25.3876 48.9476 25.448 48.9476 25.5688C48.9476 25.6896 48.9276 25.75 48.8876 25.75C48.2469 25.75 47.7464 25.7399 47.386 25.7198L45.2238 25.6896L43.1217 25.7198C42.7413 25.7399 42.2207 25.75 41.5601 25.75C41.52 25.75 41.5 25.6896 41.5 25.5688C41.5 25.448 41.52 25.3876 41.5601 25.3876C42.2808 25.3876 42.8113 25.3373 43.1517 25.2366C43.492 25.136 43.7223 24.9447 43.8424 24.6628C43.9625 24.3609 44.0226 23.9079 44.0226 23.3039V9.32187C44.0226 8.71789 43.9625 8.27498 43.8424 7.99312C43.7223 7.71126 43.492 7.52 43.1517 7.41934C42.8113 7.29855 42.2808 7.23815 41.5601 7.23815C41.52 7.23815 41.5 7.17775 41.5 7.05696C41.5 6.93616 41.52 6.87577 41.5601 6.87577L43.1217 6.90596C44.0026 6.94623 44.7033 6.96636 45.2238 6.96636C45.8044 6.96636 46.5352 6.94623 47.4161 6.90596L48.8876 6.87577C48.9276 6.87577 48.9476 6.93616 48.9476 7.05696C48.9476 7.17775 48.9276 7.23815 48.8876 7.23815C48.1869 7.23815 47.6663 7.29855 47.326 7.41934C46.9856 7.54014 46.7554 7.75153 46.6353 8.05352C46.5151 8.33537 46.4551 8.77829 46.4551 9.38226V23.3039Z" fill="#F2F5F6"/>
<path d="M56.244 7.47974C55.0027 7.47974 54.0317 7.83206 53.331 8.5367C52.6303 9.2212 52.1097 10.3285 51.7694 11.8586C51.7493 11.8988 51.6793 11.919 51.5592 11.919C51.459 11.919 51.409 11.8988 51.409 11.8586C51.4891 11.2747 51.5792 10.3486 51.6793 9.08027C51.7794 7.81193 51.8294 6.85563 51.8294 6.21139C51.8294 6.11073 51.8895 6.0604 52.0096 6.0604C52.1297 6.0604 52.1898 6.11073 52.1898 6.21139C52.1898 6.65431 52.7404 6.87577 53.8415 6.87577C55.5432 6.93616 57.5553 6.96636 59.8777 6.96636C61.0589 6.96636 62.3102 6.94623 63.6315 6.90596L65.6736 6.87577C66.4144 6.87577 66.955 6.82543 67.2953 6.72477C67.6357 6.62411 67.8559 6.42278 67.956 6.12079C67.976 6.04026 68.0361 6 68.1362 6C68.2563 6 68.3163 6.04026 68.3163 6.12079C68.2563 6.68451 68.1862 7.59047 68.1061 8.83869C68.0461 10.0869 68.016 11.0935 68.016 11.8586C68.016 11.8988 67.956 11.919 67.8359 11.919C67.7358 11.919 67.6857 11.8988 67.6857 11.8586C67.5456 10.3084 67.1451 9.191 66.4845 8.5065C65.8238 7.82199 64.8428 7.47974 63.5414 7.47974C62.8007 7.47974 62.2701 7.53007 61.9498 7.63073C61.6295 7.71126 61.4093 7.88239 61.2891 8.14411C61.169 8.3857 61.109 8.79842 61.109 9.38226V23.3039C61.109 23.928 61.169 24.381 61.2891 24.6628C61.4293 24.9447 61.6895 25.136 62.0699 25.2366C62.4503 25.3373 63.061 25.3876 63.9018 25.3876C63.9419 25.3876 63.9619 25.448 63.9619 25.5688C63.9619 25.6896 63.9419 25.75 63.9018 25.75C63.2011 25.75 62.6505 25.7399 62.2501 25.7198L59.8777 25.6896L57.5653 25.7198C57.1649 25.7399 56.6043 25.75 55.8836 25.75C55.8235 25.75 55.7935 25.6896 55.7935 25.5688C55.7935 25.448 55.8235 25.3876 55.8836 25.3876C56.7044 25.3876 57.305 25.3373 57.6854 25.2366C58.0658 25.136 58.3261 24.9447 58.4662 24.6628C58.6064 24.3609 58.6765 23.9079 58.6765 23.3039V9.32187C58.6765 8.75816 58.6164 8.3555 58.4963 8.11391C58.3761 7.85219 58.1559 7.68107 57.8356 7.60054C57.5153 7.52001 56.9847 7.47974 56.244 7.47974Z" fill="#F2F5F6"/>
<path d="M91.1614 25.3876C91.2214 25.3876 91.2514 25.448 91.2514 25.5688C91.2514 25.6896 91.2214 25.75 91.1614 25.75C90.5207 25.75 90.0102 25.7399 89.6298 25.7198L87.4676 25.6896L85.0951 25.7198C84.7548 25.7399 84.2843 25.75 83.6837 25.75C83.6236 25.75 83.5936 25.6896 83.5936 25.5688C83.5936 25.448 83.6236 25.3876 83.6837 25.3876C84.4445 25.3876 85.005 25.3373 85.3654 25.2366C85.7258 25.136 85.966 24.9447 86.0861 24.6628C86.2063 24.3609 86.2663 23.9079 86.2663 23.3039V16.2676H75.3351V23.3039C75.3351 23.9079 75.3952 24.3609 75.5153 24.6628C75.6354 24.9447 75.8757 25.136 76.236 25.2366C76.5964 25.3373 77.157 25.3876 77.9178 25.3876C77.9578 25.3876 77.9778 25.448 77.9778 25.5688C77.9778 25.6896 77.9578 25.75 77.9178 25.75C77.2771 25.75 76.7666 25.7399 76.3862 25.7198L74.0738 25.6896L71.9416 25.7198C71.5612 25.7399 71.0407 25.75 70.38 25.75C70.34 25.75 70.32 25.6896 70.32 25.5688C70.32 25.448 70.34 25.3876 70.38 25.3876C71.1208 25.3876 71.6613 25.3373 72.0017 25.2366C72.3621 25.136 72.6023 24.9447 72.7224 24.6628C72.8626 24.3609 72.9326 23.9079 72.9326 23.3039V9.32187C72.9326 8.71789 72.8726 8.27498 72.7525 7.99312C72.6323 7.71126 72.4021 7.52 72.0618 7.41934C71.7214 7.29855 71.1809 7.23815 70.4401 7.23815C70.38 7.23815 70.35 7.17775 70.35 7.05696C70.35 6.93616 70.38 6.87577 70.4401 6.87577L71.9717 6.90596C72.8125 6.94623 73.5132 6.96636 74.0738 6.96636C74.7145 6.96636 75.4953 6.94623 76.4162 6.90596L77.9178 6.87577C77.9578 6.87577 77.9778 6.93616 77.9778 7.05696C77.9778 7.17775 77.9578 7.23815 77.9178 7.23815C77.177 7.23815 76.6264 7.29855 76.2661 7.41934C75.9057 7.54014 75.6554 7.75153 75.5153 8.05352C75.3952 8.33537 75.3351 8.77829 75.3351 9.38226V15.573H86.2663V9.38226C86.2663 8.77829 86.1963 8.33537 86.0561 8.05352C85.936 7.75153 85.6957 7.54014 85.3354 7.41934C84.995 7.29855 84.4445 7.23815 83.6837 7.23815C83.6236 7.23815 83.5936 7.17775 83.5936 7.05696C83.5936 6.93616 83.6236 6.87577 83.6837 6.87577L85.0951 6.90596C86.0161 6.94623 86.8069 6.96636 87.4676 6.96636C88.0281 6.96636 88.7489 6.94623 89.6298 6.90596L91.1614 6.87577C91.2214 6.87577 91.2514 6.93616 91.2514 7.05696C91.2514 7.17775 91.2214 7.23815 91.1614 7.23815C90.4206 7.23815 89.88 7.29855 89.5397 7.41934C89.1993 7.52 88.9591 7.71126 88.819 7.99312C88.6988 8.27498 88.6388 8.71789 88.6388 9.32187V23.3039C88.6388 23.9079 88.6988 24.3609 88.819 24.6628C88.9591 24.9447 89.1993 25.136 89.5397 25.2366C89.88 25.3373 90.4206 25.3876 91.1614 25.3876Z" fill="#F2F5F6"/>
<path d="M98.4811 23.3039C98.4811 23.9079 98.5412 24.3609 98.6613 24.6628C98.7814 24.9447 99.0017 25.136 99.322 25.2366C99.6623 25.3373 100.193 25.3876 100.914 25.3876C100.954 25.3876 100.974 25.448 100.974 25.5688C100.974 25.6896 100.954 25.75 100.914 25.75C100.273 25.75 99.7725 25.7399 99.4121 25.7198L97.2499 25.6896L95.1477 25.7198C94.7673 25.7399 94.2468 25.75 93.5861 25.75C93.5461 25.75 93.5261 25.6896 93.5261 25.5688C93.5261 25.448 93.5461 25.3876 93.5861 25.3876C94.3069 25.3876 94.8374 25.3373 95.1777 25.2366C95.5181 25.136 95.7483 24.9447 95.8685 24.6628C95.9886 24.3609 96.0486 23.9079 96.0486 23.3039V9.32187C96.0486 8.71789 95.9886 8.27498 95.8685 7.99312C95.7483 7.71126 95.5181 7.52 95.1777 7.41934C94.8374 7.29855 94.3069 7.23815 93.5861 7.23815C93.5461 7.23815 93.5261 7.17775 93.5261 7.05696C93.5261 6.93616 93.5461 6.87577 93.5861 6.87577L95.1477 6.90596C96.0286 6.94623 96.7293 6.96636 97.2499 6.96636C97.8305 6.96636 98.5612 6.94623 99.4421 6.90596L100.914 6.87577C100.954 6.87577 100.974 6.93616 100.974 7.05696C100.974 7.17775 100.954 7.23815 100.914 7.23815C100.213 7.23815 99.6924 7.29855 99.352 7.41934C99.0117 7.54014 98.7814 7.75153 98.6613 8.05352C98.5412 8.33537 98.4811 8.77829 98.4811 9.38226V23.3039Z" fill="#F2F5F6"/>
<path d="M108.12 23.1831C108.12 23.7468 108.17 24.1595 108.27 24.4213C108.39 24.6628 108.6 24.834 108.901 24.9346C109.201 25.0152 109.671 25.0554 110.312 25.0554H112.865C114.126 25.0554 115.167 24.683 115.988 23.9381C116.829 23.173 117.389 22.1463 117.67 20.8578C117.67 20.7974 117.72 20.7773 117.82 20.7974C117.94 20.7974 118 20.8276 118 20.888C117.82 22.6597 117.73 24.1293 117.73 25.297C117.73 25.4581 117.69 25.5789 117.61 25.6594C117.55 25.7198 117.439 25.75 117.279 25.75H103.285C103.245 25.75 103.225 25.6896 103.225 25.5688C103.225 25.448 103.245 25.3876 103.285 25.3876C104.006 25.3876 104.526 25.3373 104.846 25.2366C105.187 25.136 105.417 24.9447 105.537 24.6628C105.657 24.3609 105.717 23.9079 105.717 23.3039V9.32187C105.717 8.71789 105.657 8.27498 105.537 7.99312C105.417 7.71126 105.187 7.52 104.846 7.41934C104.526 7.29855 104.006 7.23815 103.285 7.23815C103.245 7.23815 103.225 7.17775 103.225 7.05696C103.225 6.93616 103.245 6.87577 103.285 6.87577L104.786 6.90596C105.667 6.94623 106.378 6.96636 106.919 6.96636C107.459 6.96636 108.17 6.94623 109.051 6.90596L110.552 6.87577C110.592 6.87577 110.612 6.93616 110.612 7.05696C110.612 7.17775 110.592 7.23815 110.552 7.23815C109.852 7.23815 109.331 7.29855 108.991 7.41934C108.65 7.52 108.42 7.72133 108.3 8.02332C108.18 8.30517 108.12 8.74809 108.12 9.35206V23.1831Z" fill="#F2F5F6"/>
</svg>
