<svg width="34" height="32" viewBox="0 0 34 32" fill="none" xmlns="http://www.w3.org/2000/svg">
<path d="M12 30.6875C23.7875 32.4625 28.6625 24.1125 29.6125 19.25C29.7875 16.875 28.9875 15.9875 28.725 15.625C28.4875 19.775 26.2875 24.6 24.025 26.25C25.3 24.6125 25.5 22.9 25.4 22.5125C21.4 30.3125 14.6625 30.9375 12 30.6875Z" fill="#A4B8C9"/>
<path d="M12.0375 25.5875C16.1875 24.55 17.725 20.3 18.125 18.35C16.6125 26.1375 9.8125 27.8 6.15 27.4625C4.375 26.1 2.6625 23.2375 2 21.4875C3.0125 23.3 6.8375 26.8875 12.0375 25.5875Z" fill="#A4B8C9"/>
<path d="M16.825 2.875C18.0125 2.45 19.1875 2.65 19.575 2.7625C19.5 3.7 19.3 4.7 19.225 4.975C19.125 4.275 17.525 3.2875 16.825 2.875Z" fill="#A4B8C9"/>
<path d="M28.5 8.375C29.4125 8.8 29.8875 9.2875 30.05 9.5C27.1875 3.5625 21.575 1.6 19.6125 1.25C19.75 5.7 17.45 14.4875 7.15 13.775C7.275 14.375 7.85 15.3125 8.4625 15.85C11.45 18.4875 16.2375 18.5 18.125 18.35C16.55 26.325 9.3875 27.8 6.125 27.4375C8.1875 29.3125 10.95 30.4875 12.0125 30.6875C19.5875 31.3375 24.175 25.4375 25.4 22.5125C25.5 24.025 24.4125 25.8 24.025 26.25C27.3125 23.7875 28.6375 17.9625 28.7375 15.675C29.6875 16.9125 29.6875 18.65 29.575 19.3625C31 14.275 29.45 9.925 28.5 8.375ZM20.7 12.1125C19.8625 12.575 18.975 12.4375 18.6875 12.4C18.6375 12.1125 18.75 11.55 19.0375 11.175C19.2875 10.85 19.725 10.4625 20.5625 10.4625C21.225 10.4625 21.8625 10.7875 22.05 10.9375C21.8875 11.125 21.475 11.6875 20.7 12.1125Z" fill="#E5EBED"/>
</svg>
