<svg width="16" height="16" viewBox="0 0 16 16" fill="none" xmlns="http://www.w3.org/2000/svg">
<path d="M14.8957 0.888889L8.95654 5.28347L10.061 2.6936L14.8957 0.888889Z" fill="#E17726" stroke="#E17726" stroke-width="0.25" stroke-linecap="round" stroke-linejoin="round"/>
<path d="M1.19629 0.888889L7.0826 5.32448L6.03106 2.6936L1.19629 0.888889Z" fill="#E27625" stroke="#E27625" stroke-width="0.25" stroke-linecap="round" stroke-linejoin="round"/>
<path d="M12.7575 11.0784L11.1772 13.4925L14.561 14.4242L15.5303 11.1312L12.7575 11.0784Z" fill="#E27625" stroke="#E27625" stroke-width="0.25" stroke-linecap="round" stroke-linejoin="round"/>
<path d="M0.567871 11.1312L1.53129 14.4242L4.90918 13.4925L3.33478 11.0784L0.567871 11.1312Z" fill="#E27625" stroke="#E27625" stroke-width="0.25" stroke-linecap="round" stroke-linejoin="round"/>
<path d="M4.72702 7.00028L3.78711 8.41828L7.1356 8.57062L7.024 4.96707L4.72702 7.00028Z" fill="#E27625" stroke="#E27625" stroke-width="0.25" stroke-linecap="round" stroke-linejoin="round"/>
<path d="M11.3651 7.00034L9.03292 4.92611L8.95654 8.57068L12.305 8.41834L11.3651 7.00034Z" fill="#E27625" stroke="#E27625" stroke-width="0.25" stroke-linecap="round" stroke-linejoin="round"/>
<path d="M4.90918 13.4925L6.93588 12.514L5.19117 11.1546L4.90918 13.4925Z" fill="#E27625" stroke="#E27625" stroke-width="0.25" stroke-linecap="round" stroke-linejoin="round"/>
<path d="M9.15625 12.514L11.1771 13.4925L10.901 11.1546L9.15625 12.514Z" fill="#E27625" stroke="#E27625" stroke-width="0.25" stroke-linecap="round" stroke-linejoin="round"/>
<path d="M11.1771 13.4926L9.15625 12.5141L9.32071 13.8266L9.30308 14.3833L11.1771 13.4926Z" fill="#D5BFB2" stroke="#D5BFB2" stroke-width="0.25" stroke-linecap="round" stroke-linejoin="round"/>
<path d="M4.90918 13.4926L6.78905 14.3833L6.77729 13.8266L6.93588 12.5141L4.90918 13.4926Z" fill="#D5BFB2" stroke="#D5BFB2" stroke-width="0.25" stroke-linecap="round" stroke-linejoin="round"/>
<path d="M6.82418 10.2874L5.14404 9.79527L6.3307 9.25032L6.82418 10.2874Z" fill="#233447" stroke="#233447" stroke-width="0.25" stroke-linecap="round" stroke-linejoin="round"/>
<path d="M9.26807 10.2874L9.76155 9.25032L10.9541 9.79527L9.26807 10.2874Z" fill="#233447" stroke="#233447" stroke-width="0.25" stroke-linecap="round" stroke-linejoin="round"/>
<path d="M4.90884 13.4925L5.20259 11.0784L3.33447 11.1312L4.90884 13.4925Z" fill="#CC6228" stroke="#CC6228" stroke-width="0.25" stroke-linecap="round" stroke-linejoin="round"/>
<path d="M10.8892 11.0784L11.177 13.4925L12.7573 11.1312L10.8892 11.0784Z" fill="#CC6228" stroke="#CC6228" stroke-width="0.25" stroke-linecap="round" stroke-linejoin="round"/>
<path d="M12.305 8.41824L8.95654 8.57058L9.26788 10.2874L9.76136 9.25028L10.9539 9.79522L12.305 8.41824Z" fill="#CC6228" stroke="#CC6228" stroke-width="0.25" stroke-linecap="round" stroke-linejoin="round"/>
<path d="M5.14413 9.79522L6.33078 9.25028L6.82427 10.2874L7.1356 8.57058L3.78711 8.41824L5.14413 9.79522Z" fill="#CC6228" stroke="#CC6228" stroke-width="0.25" stroke-linecap="round" stroke-linejoin="round"/>
<path d="M3.78711 8.41824L5.19114 11.1546L5.14411 9.79522L3.78711 8.41824Z" fill="#E27525" stroke="#E27525" stroke-width="0.25" stroke-linecap="round" stroke-linejoin="round"/>
<path d="M10.9537 9.79522L10.9009 11.1546L12.3049 8.41824L10.9537 9.79522Z" fill="#E27525" stroke="#E27525" stroke-width="0.25" stroke-linecap="round" stroke-linejoin="round"/>
<path d="M7.1356 8.57058L6.82422 10.2874L7.21781 12.3148L7.30595 9.64288L7.1356 8.57058Z" fill="#E27525" stroke="#E27525" stroke-width="0.25" stroke-linecap="round" stroke-linejoin="round"/>
<path d="M8.9565 8.57058L8.79199 9.63704L8.87425 12.3148L9.26784 10.2874L8.9565 8.57058Z" fill="#E27525" stroke="#E27525" stroke-width="0.25" stroke-linecap="round" stroke-linejoin="round"/>
<path d="M9.2681 10.2875L8.87451 12.3148L9.1565 12.514L10.9013 11.1546L10.9541 9.79525L9.2681 10.2875Z" fill="#F5841F" stroke="#F5841F" stroke-width="0.25" stroke-linecap="round" stroke-linejoin="round"/>
<path d="M5.14404 9.79525L5.19107 11.1546L6.93578 12.514L7.21777 12.3148L6.82418 10.2875L5.14404 9.79525Z" fill="#F5841F" stroke="#F5841F" stroke-width="0.25" stroke-linecap="round" stroke-linejoin="round"/>
<path d="M9.30335 14.3832L9.32094 13.8266L9.16824 13.6976H6.92417L6.77729 13.8266L6.78905 14.3832L4.90918 13.4926L5.56713 14.0316L6.90065 14.9516H9.18583L10.5252 14.0316L11.1773 13.4926L9.30335 14.3832Z" fill="#C0AC9D" stroke="#C0AC9D" stroke-width="0.25" stroke-linecap="round" stroke-linejoin="round"/>
<path d="M9.15604 12.514L8.87405 12.3148H7.21743L6.93549 12.514L6.77686 13.8265L6.92373 13.6976H9.1678L9.32055 13.8265L9.15604 12.514Z" fill="#161616" stroke="#161616" stroke-width="0.25" stroke-linecap="round" stroke-linejoin="round"/>
<path d="M15.1483 5.57057L15.6476 3.14477L14.8957 0.888889L9.15625 5.137L11.365 7.00028L14.4844 7.90851L15.1718 7.10577L14.8722 6.88895L15.348 6.45538L14.9838 6.17411L15.4596 5.81082L15.1483 5.57057Z" fill="#763E1A" stroke="#763E1A" stroke-width="0.25" stroke-linecap="round" stroke-linejoin="round"/>
<path d="M0.444336 3.14477L0.949548 5.57057L0.626449 5.81082L1.10816 6.17411L0.743939 6.45538L1.21978 6.88895L0.920173 7.10577L1.6075 7.90851L4.72691 7.00028L6.93571 5.137L1.19628 0.888889L0.444336 3.14477Z" fill="#763E1A" stroke="#763E1A" stroke-width="0.25" stroke-linecap="round" stroke-linejoin="round"/>
<path d="M14.4844 7.90846L11.365 7.00027L12.3049 8.41827L10.9009 11.1546L12.7572 11.1312H15.53L14.4844 7.90846Z" fill="#F5841F" stroke="#F5841F" stroke-width="0.25" stroke-linecap="round" stroke-linejoin="round"/>
<path d="M4.72703 7.00027L1.60767 7.90846L0.567871 11.1312H3.33478L5.19112 11.1546L3.78713 8.41827L4.72703 7.00027Z" fill="#F5841F" stroke="#F5841F" stroke-width="0.25" stroke-linecap="round" stroke-linejoin="round"/>
<path d="M8.95629 8.57061L9.15603 5.13694L10.0607 2.69358H6.03076L6.93543 5.13694L7.13516 8.57061L7.21154 9.64873L7.21741 12.3148H8.87404L8.87991 9.64873L8.95629 8.57061Z" fill="#F5841F" stroke="#F5841F" stroke-width="0.25" stroke-linecap="round" stroke-linejoin="round"/>
</svg>
