<svg width="16" height="16" viewBox="0 0 16 16" fill="none" xmlns="http://www.w3.org/2000/svg">
<path d="M13.5 7V4" stroke="#F3E7A8" stroke-linecap="round" stroke-linejoin="round"/>
<path d="M15 5.5H12" stroke="#F3E7A8" stroke-linecap="round" stroke-linejoin="round"/>
<path d="M10.5 1.5V3.5" stroke="#F3E7A8" stroke-linecap="round" stroke-linejoin="round"/>
<path d="M11.5 2.5H9.5" stroke="#F3E7A8" stroke-linecap="round" stroke-linejoin="round"/>
<path d="M13.5438 9.5375C12.5622 9.81278 11.5249 9.8218 10.5386 9.56364C9.55229 9.30548 8.65247 8.78944 7.93155 8.06852C7.21064 7.3476 6.6946 6.44778 6.43644 5.46148C6.17828 4.47517 6.1873 3.43792 6.46257 2.45625C5.49474 2.72563 4.61437 3.24389 3.90916 3.9594C3.20396 4.6749 2.69852 5.56269 2.44319 6.53433C2.18787 7.50597 2.19157 8.52755 2.45393 9.49731C2.71629 10.4671 3.22815 11.3512 3.93853 12.0616C4.64891 12.7719 5.53301 13.2838 6.50277 13.5461C7.47253 13.8085 8.49411 13.8122 9.46574 13.5569C10.4374 13.3016 11.3252 12.7961 12.0407 12.0909C12.7562 11.3857 13.2744 10.5053 13.5438 9.5375Z" stroke="#F3E7A8" stroke-linecap="round" stroke-linejoin="round"/>
</svg>
