<svg width="24" height="24" viewBox="0 0 24 24" fill="none" xmlns="http://www.w3.org/2000/svg">
<path fill-rule="evenodd" clip-rule="evenodd" d="M24 12C24 10.44 23.688 8.856 23.088 7.416C22.488 5.976 21.6 4.632 20.496 3.504C19.368 2.4 18.048 1.512 16.584 0.912C15.12 0.312 13.56 0 12 0C10.44 0 8.856 0.312 7.416 0.912C5.976 1.512 4.632 2.4 3.504 3.504C2.4 4.632 1.512 5.952 0.912 7.416C0.312 8.88 0 10.44 0 12C0 13.56 0.312 15.144 0.912 16.584C1.512 18.024 2.4 19.368 3.504 20.496C4.608 21.6 5.952 22.488 7.392 23.088C8.832 23.688 10.44 24 12 24C13.56 24 15.144 23.688 16.584 23.088C18.024 22.488 19.368 21.6 20.496 20.496C21.6 19.392 22.488 18.048 23.088 16.608C23.688 15.168 24 13.56 24 12Z" fill="url(#paint0_linear_1611_12988)"/>
<path fill-rule="evenodd" clip-rule="evenodd" d="M11.377 6.576H12.625V17.424H11.377V6.576Z" fill="white"/>
<path fill-rule="evenodd" clip-rule="evenodd" d="M10.6794 11.688V10.392C9.69539 9.912 8.99939 8.88 8.99939 7.704C8.99939 6.048 10.3434 4.704 11.9994 4.704C13.8714 4.704 15.2154 6.048 15.2154 7.704C15.2154 8.112 15.1194 8.52 14.9274 9L14.3994 7.272L13.3434 7.608L14.2794 11.184L17.9274 9.84L17.4714 8.784L16.1034 9.24C16.3434 8.712 16.3914 8.304 16.3914 7.68C16.3914 5.352 14.5194 3.48 11.9754 3.48C9.64739 3.48 7.77539 5.352 7.77539 7.68C7.79939 9.552 8.99939 11.136 10.6794 11.688Z" fill="white"/>
<path fill-rule="evenodd" clip-rule="evenodd" d="M13.3203 12.312V13.608C14.3043 14.088 15.0003 15.12 15.0003 16.296C15.0003 17.952 13.6563 19.296 12.0003 19.296C10.1283 19.296 8.78427 17.952 8.78427 16.296C8.78427 15.888 8.88027 15.48 9.07227 15L9.60027 16.728L10.6563 16.392L9.72027 12.816L6.07227 14.16L6.52827 15.216L7.89627 14.76C7.65627 15.288 7.60827 15.696 7.60827 16.32C7.60827 18.648 9.48027 20.52 12.0243 20.52C14.3523 20.52 16.2243 18.648 16.2243 16.32C16.2003 14.448 15.0003 12.864 13.3203 12.312Z" fill="white"/>
<defs>
<linearGradient id="paint0_linear_1611_12988" x1="0" y1="0" x2="24" y2="24" gradientUnits="userSpaceOnUse">
<stop stop-color="#0077FC"/>
<stop offset="1" stop-color="#095EB5"/>
</linearGradient>
</defs>
</svg>
