<svg width="268" height="256" viewBox="0 0 268 256" fill="none" xmlns="http://www.w3.org/2000/svg">
<path d="M268 91.3C240.9 38.2 199.7 18 177.7 10C162.4 3.6 145.7 0 128 0C57.3 0 0 57.3 0 128C0 198.7 57.3 256 128 256C192.3 256 245.4 208.7 254.6 147C257.7 156.5 256.4 166.7 255.1 171.3C271.4 131.2 262.8 94.2 256.5 80.7C263.4 85 266.9 89.4 268 91.3Z" fill="#2A333C"/>
<path d="M96 245.5C190.3 259.7 229.3 192.9 236.9 154C238.3 135 231.9 127.9 229.8 125C227.9 158.2 210.3 196.8 192.2 210C202.4 196.9 204 183.2 203.2 180.1C171.2 242.5 117.3 247.5 96 245.5Z" fill="#A4B8C9"/>
<path d="M96.3 204.7C129.5 196.4 141.8 162.4 145 146.8C132.9 209.1 78.5 222.4 49.2 219.7C35 208.8 21.3 185.9 16 171.9C24.1 186.4 54.7 215.1 96.3 204.7Z" fill="#A4B8C9"/>
<path d="M134.6 23C144.1 19.6 153.5 21.2 156.6 22.1C156 29.6 154.4 37.6 153.8 39.8C153 34.2 140.2 26.3 134.6 23Z" fill="#A4B8C9"/>
<path d="M228 67C235.3 70.4 239.1 74.3 240.4 76C217.5 28.5 172.6 12.8 156.9 10C158 45.6 139.6 115.9 57.2 110.2C58.2 115 62.8 122.5 67.7 126.8C91.6 147.9 129.9 148 145 146.8C132.4 210.6 75.1 222.4 49 219.5C65.5 234.5 87.6 243.9 96.1 245.5C156.7 250.7 193.4 203.5 203.2 180.1C204 192.2 195.3 206.4 192.2 210C218.5 190.3 229.1 143.7 229.9 125.4C237.5 135.3 237.5 149.2 236.6 154.9C248 114.2 235.6 79.4 228 67ZM165.6 96.9C158.9 100.6 151.8 99.5 149.5 99.2C149.1 96.9 150 92.4 152.3 89.4C154.3 86.8 157.8 83.7 164.5 83.7C169.8 83.7 174.9 86.3 176.4 87.5C175.1 89 171.8 93.5 165.6 96.9Z" fill="#E5EBED"/>
</svg>
