<?xml version="1.0" standalone="no"?>
<!DOCTYPE svg PUBLIC "-//W3C//DTD SVG 20010904//EN"
 "http://www.w3.org/TR/2001/REC-SVG-20010904/DTD/svg10.dtd">
<svg version="1.0" xmlns="http://www.w3.org/2000/svg"
 width="512.000000pt" height="512.000000pt" viewBox="0 0 512.000000 512.000000"
 preserveAspectRatio="xMidYMid meet">
<metadata>
Created by potrace 1.14, written by Peter Selinger 2001-2017
</metadata>
<g transform="translate(0.000000,512.000000) scale(0.100000,-0.100000)"
fill="#000000" stroke="none">
<path d="M760 2787 l0 -745 137 -78 c75 -44 140 -80 145 -82 4 -2 8 254 8 568
0 314 4 570 8 568 5 -1 124 -70 265 -152 l258 -148 144 83 c80 46 141 86 137
90 -4 4 -243 143 -532 310 -289 166 -535 309 -547 317 l-23 14 0 -745z"/>
<path d="M3066 2794 c-699 -403 -1274 -738 -1279 -743 -5 -5 51 -43 133 -90
78 -44 144 -81 146 -81 4 0 378 215 869 500 121 70 353 204 515 298 162 93
362 208 444 256 82 47 151 86 153 86 1 0 3 -256 3 -570 0 -313 3 -570 6 -570
4 0 69 37 145 81 l139 81 0 744 c0 409 -1 744 -2 743 -2 0 -574 -331 -1272
-735z"/>
<path d="M2500 3029 c-19 -12 -179 -105 -355 -207 -176 -101 -437 -252 -580
-334 -143 -83 -263 -153 -267 -157 -4 -3 58 -44 137 -89 l144 -84 630 364
c346 199 627 366 625 369 -7 12 -272 159 -285 159 -8 0 -30 -10 -49 -21z"/>
<path d="M2888 2131 c-340 -196 -620 -359 -622 -362 -3 -2 60 -42 139 -87 130
-75 146 -82 167 -71 13 7 282 162 598 344 316 183 590 340 608 349 18 9 30 21
28 25 -9 14 -273 161 -287 160 -8 0 -292 -161 -631 -358z"/>
</g>
</svg>
