<svg width="944" height="256" viewBox="0 0 944 256" fill="none" xmlns="http://www.w3.org/2000/svg">
<path d="M268 91.3C240.9 38.2 199.7 18 177.7 10C162.4 3.6 145.7 0 128 0C57.3 0 0 57.3 0 128C0 198.7 57.3 256 128 256C192.3 256 245.4 208.7 254.6 147C257.7 156.5 256.4 166.7 255.1 171.3C271.4 131.2 262.8 94.2 256.5 80.7C263.4 85 266.9 89.4 268 91.3Z" fill="#2A333C"/>
<path d="M96 245.5C190.3 259.7 229.3 192.9 236.9 154C238.3 135 231.9 127.9 229.8 125C227.9 158.2 210.3 196.8 192.2 210C202.4 196.9 204 183.2 203.2 180.1C171.2 242.5 117.3 247.5 96 245.5Z" fill="#A4B8C9"/>
<path d="M96.3 204.7C129.5 196.4 141.8 162.4 145 146.8C132.9 209.1 78.5 222.4 49.2 219.7C35 208.8 21.3 185.9 16 171.9C24.1 186.4 54.7 215.1 96.3 204.7Z" fill="#A4B8C9"/>
<path d="M134.6 23C144.1 19.6 153.5 21.2 156.6 22.1C156 29.6 154.4 37.6 153.8 39.8C153 34.2 140.2 26.3 134.6 23Z" fill="#A4B8C9"/>
<path d="M228 67C235.3 70.4 239.1 74.3 240.4 76C217.5 28.5 172.6 12.8 156.9 10C158 45.6 139.6 115.9 57.2 110.2C58.2 115 62.8 122.5 67.7 126.8C91.6 147.9 129.9 148 145 146.8C132.4 210.6 75.1 222.4 49 219.5C65.5 234.5 87.6 243.9 96.1 245.5C156.7 250.7 193.4 203.5 203.2 180.1C204 192.2 195.3 206.4 192.2 210C218.5 190.3 229.1 143.7 229.9 125.4C237.5 135.3 237.5 149.2 236.6 154.9C248 114.2 235.6 79.4 228 67ZM165.6 96.9C158.9 100.6 151.8 99.5 149.5 99.2C149.1 96.9 150 92.4 152.3 89.4C154.3 86.8 157.8 83.7 164.5 83.7C169.8 83.7 174.9 86.3 176.4 87.5C175.1 89 171.8 93.5 165.6 96.9Z" fill="#E5EBED"/>
<path d="M371.641 186.431C371.641 191.263 372.121 194.887 373.082 197.303C374.043 199.558 375.805 201.088 378.368 201.893C381.09 202.698 385.335 203.101 391.101 203.101C391.421 203.101 391.581 203.584 391.581 204.55C391.581 205.517 391.421 206 391.101 206C385.975 206 381.971 205.919 379.088 205.758L361.791 205.517L344.973 205.758C341.93 205.919 337.766 206 332.48 206C332.16 206 332 205.517 332 204.55C332 203.584 332.16 203.101 332.48 203.101C338.246 203.101 342.491 202.698 345.214 201.893C347.936 201.088 349.778 199.558 350.739 197.303C351.7 194.887 352.181 191.263 352.181 186.431V74.5749C352.181 69.7431 351.7 66.1998 350.739 63.945C349.778 61.6901 347.936 60.16 345.214 59.3547C342.491 58.3884 338.246 57.9052 332.48 57.9052C332.16 57.9052 332 57.422 332 56.4557C332 55.4893 332.16 55.0061 332.48 55.0061L344.973 55.2477C352.021 55.5698 357.626 55.7309 361.791 55.7309C366.435 55.7309 372.281 55.5698 379.329 55.2477L391.101 55.0061C391.421 55.0061 391.581 55.4893 391.581 56.4557C391.581 57.422 391.421 57.9052 391.101 57.9052C385.495 57.9052 381.331 58.3884 378.608 59.3547C375.885 60.3211 374.043 62.0122 373.082 64.4281C372.121 66.683 371.641 70.2263 371.641 75.0581V186.431Z" fill="#F2F5F6"/>
<path d="M449.952 59.8379C440.021 59.8379 432.254 62.6565 426.648 68.2936C421.042 73.7696 416.878 82.6279 414.155 94.8685C413.995 95.1906 413.434 95.3517 412.473 95.3517C411.672 95.3517 411.272 95.1906 411.272 94.8685C411.913 90.1978 412.633 82.789 413.434 72.6422C414.235 62.4954 414.635 54.8451 414.635 49.6911C414.635 48.8858 415.116 48.4832 416.077 48.4832C417.038 48.4832 417.518 48.8858 417.518 49.6911C417.518 53.2345 421.923 55.0061 430.732 55.0061C444.346 55.4893 460.442 55.7309 479.022 55.7309C488.471 55.7309 498.481 55.5698 509.052 55.2477L525.389 55.0061C531.315 55.0061 535.64 54.6035 538.362 53.7982C541.085 52.9929 542.847 51.3823 543.648 48.9664C543.808 48.3221 544.288 48 545.089 48C546.05 48 546.531 48.3221 546.531 48.9664C546.05 53.476 545.49 60.7238 544.849 70.7095C544.369 80.6952 544.128 88.7482 544.128 94.8685C544.128 95.1906 543.648 95.3517 542.687 95.3517C541.886 95.3517 541.486 95.1906 541.486 94.8685C540.364 82.4669 537.161 73.528 531.876 68.052C526.59 62.5759 518.742 59.8379 508.332 59.8379C502.406 59.8379 498.161 60.2406 495.599 61.0459C493.036 61.6901 491.274 63.0591 490.313 65.1529C489.352 67.0856 488.872 70.3874 488.872 75.0581V186.431C488.872 191.424 489.352 195.048 490.313 197.303C491.434 199.558 493.516 201.088 496.56 201.893C499.603 202.698 504.488 203.101 511.215 203.101C511.535 203.101 511.695 203.584 511.695 204.55C511.695 205.517 511.535 206 511.215 206C505.609 206 501.204 205.919 498.001 205.758L479.022 205.517L460.523 205.758C457.319 205.919 452.835 206 447.069 206C446.588 206 446.348 205.517 446.348 204.55C446.348 203.584 446.588 203.101 447.069 203.101C453.635 203.101 458.44 202.698 461.484 201.893C464.527 201.088 466.609 199.558 467.73 197.303C468.851 194.887 469.412 191.263 469.412 186.431V74.5749C469.412 70.0652 468.931 66.844 467.97 64.9113C467.009 62.8175 465.247 61.4485 462.685 60.8043C460.122 60.16 455.878 59.8379 449.952 59.8379Z" fill="#F2F5F6"/>
<path d="M729.291 203.101C729.771 203.101 730.012 203.584 730.012 204.55C730.012 205.517 729.771 206 729.291 206C724.166 206 720.081 205.919 717.038 205.758L699.741 205.517L680.761 205.758C678.038 205.919 674.274 206 669.469 206C668.989 206 668.749 205.517 668.749 204.55C668.749 203.584 668.989 203.101 669.469 203.101C675.556 203.101 680.04 202.698 682.923 201.893C685.806 201.088 687.728 199.558 688.689 197.303C689.65 194.887 690.131 191.263 690.131 186.431V130.141H602.681V186.431C602.681 191.263 603.161 194.887 604.122 197.303C605.083 199.558 607.005 201.088 609.888 201.893C612.771 202.698 617.256 203.101 623.342 203.101C623.662 203.101 623.823 203.584 623.823 204.55C623.823 205.517 623.662 206 623.342 206C618.217 206 614.133 205.919 611.09 205.758L592.591 205.517L575.533 205.758C572.49 205.919 568.326 206 563.04 206C562.72 206 562.56 205.517 562.56 204.55C562.56 203.584 562.72 203.101 563.04 203.101C568.966 203.101 573.291 202.698 576.014 201.893C578.897 201.088 580.818 199.558 581.779 197.303C582.901 194.887 583.461 191.263 583.461 186.431V74.5749C583.461 69.7431 582.981 66.1998 582.02 63.945C581.059 61.6901 579.217 60.16 576.494 59.3547C573.771 58.3884 569.447 57.9052 563.521 57.9052C563.04 57.9052 562.8 57.422 562.8 56.4557C562.8 55.4893 563.04 55.0061 563.521 55.0061L575.773 55.2477C582.5 55.5698 588.106 55.7309 592.591 55.7309C597.716 55.7309 603.962 55.5698 611.33 55.2477L623.342 55.0061C623.662 55.0061 623.823 55.4893 623.823 56.4557C623.823 57.422 623.662 57.9052 623.342 57.9052C617.416 57.9052 613.012 58.3884 610.129 59.3547C607.246 60.3211 605.244 62.0122 604.122 64.4281C603.161 66.683 602.681 70.2263 602.681 75.0581V124.584H690.131V75.0581C690.131 70.2263 689.57 66.683 688.449 64.4281C687.488 62.0122 685.566 60.3211 682.683 59.3547C679.96 58.3884 675.556 57.9052 669.469 57.9052C668.989 57.9052 668.749 57.422 668.749 56.4557C668.749 55.4893 668.989 55.0061 669.469 55.0061L680.761 55.2477C688.129 55.5698 694.455 55.7309 699.741 55.7309C704.225 55.7309 709.991 55.5698 717.038 55.2477L729.291 55.0061C729.771 55.0061 730.012 55.4893 730.012 56.4557C730.012 57.422 729.771 57.9052 729.291 57.9052C723.365 57.9052 719.04 58.3884 716.318 59.3547C713.595 60.16 711.673 61.6901 710.552 63.945C709.591 66.1998 709.11 69.7431 709.11 74.5749V186.431C709.11 191.263 709.591 194.887 710.552 197.303C711.673 199.558 713.595 201.088 716.318 201.893C719.04 202.698 723.365 203.101 729.291 203.101Z" fill="#F2F5F6"/>
<path d="M787.849 186.431C787.849 191.263 788.33 194.887 789.291 197.303C790.252 199.558 792.013 201.088 794.576 201.893C797.299 202.698 801.543 203.101 807.309 203.101C807.629 203.101 807.79 203.584 807.79 204.55C807.79 205.517 807.629 206 807.309 206C802.184 206 798.18 205.919 795.297 205.758L777.999 205.517L761.182 205.758C758.139 205.919 753.974 206 748.689 206C748.369 206 748.208 205.517 748.208 204.55C748.208 203.584 748.369 203.101 748.689 203.101C754.455 203.101 758.699 202.698 761.422 201.893C764.145 201.088 765.987 199.558 766.948 197.303C767.909 194.887 768.389 191.263 768.389 186.431V74.5749C768.389 69.7431 767.909 66.1998 766.948 63.945C765.987 61.6901 764.145 60.16 761.422 59.3547C758.699 58.3884 754.455 57.9052 748.689 57.9052C748.369 57.9052 748.208 57.422 748.208 56.4557C748.208 55.4893 748.369 55.0061 748.689 55.0061L761.182 55.2477C768.229 55.5698 773.835 55.7309 777.999 55.7309C782.644 55.7309 788.49 55.5698 795.537 55.2477L807.309 55.0061C807.629 55.0061 807.79 55.4893 807.79 56.4557C807.79 57.422 807.629 57.9052 807.309 57.9052C801.703 57.9052 797.539 58.3884 794.816 59.3547C792.093 60.3211 790.252 62.0122 789.291 64.4281C788.33 66.683 787.849 70.2263 787.849 75.0581V186.431Z" fill="#F2F5F6"/>
<path d="M864.959 185.465C864.959 189.975 865.359 193.276 866.16 195.37C867.121 197.303 868.803 198.672 871.205 199.477C873.608 200.121 877.372 200.443 882.497 200.443H902.918C913.008 200.443 921.337 197.464 927.903 191.505C934.63 185.384 939.115 177.17 941.357 166.862C941.357 166.379 941.758 166.218 942.558 166.379C943.519 166.379 944 166.621 944 167.104C942.558 181.277 941.838 193.035 941.838 202.376C941.838 203.665 941.517 204.631 940.877 205.275C940.396 205.758 939.515 206 938.234 206H826.279C825.959 206 825.799 205.517 825.799 204.55C825.799 203.584 825.959 203.101 826.279 203.101C832.045 203.101 836.209 202.698 838.772 201.893C841.495 201.088 843.337 199.558 844.298 197.303C845.259 194.887 845.739 191.263 845.739 186.431V74.5749C845.739 69.7431 845.259 66.1998 844.298 63.945C843.337 61.6901 841.495 60.16 838.772 59.3547C836.209 58.3884 832.045 57.9052 826.279 57.9052C825.959 57.9052 825.799 57.422 825.799 56.4557C825.799 55.4893 825.959 55.0061 826.279 55.0061L838.291 55.2477C845.339 55.5698 851.025 55.7309 855.349 55.7309C859.673 55.7309 865.359 55.5698 872.406 55.2477L884.419 55.0061C884.739 55.0061 884.899 55.4893 884.899 56.4557C884.899 57.422 884.739 57.9052 884.419 57.9052C878.813 57.9052 874.649 58.3884 871.926 59.3547C869.203 60.16 867.361 61.7706 866.4 64.1865C865.439 66.4414 864.959 69.9847 864.959 74.8165V185.465Z" fill="#F2F5F6"/>
</svg>
