<svg width="164" height="24" viewBox="0 0 164 24" fill="none" xmlns="http://www.w3.org/2000/svg">
<g clip-path="url(#clip0_4_2535)">
<path d="M67.4325 9.94372L68.2414 8.57985V16.1658H67.4325V9.94372ZM64.4933 11.8732L67.4008 7.19482H68.2361L64.9321 12.5763L64.4933 11.8732ZM59.9207 8.57985L60.7136 9.94372V16.1658H59.9207V8.57985ZM59.9207 7.19482H60.7559L64.5462 13.3376H63.6845L59.9207 7.19482Z" fill="#1D5883"/>
<path d="M74.7542 11.8994C74.7542 10.7259 74.2256 10.3135 73.1366 10.3135C72.0476 10.3135 71.5137 10.7259 71.4767 11.4448H70.6679C70.7208 10.2078 71.7833 9.61572 73.1842 9.61572C74.4846 9.61572 75.5525 10.1444 75.5525 11.9206V16.1866H74.7542V11.8994ZM72.9939 12.3223C73.331 12.3134 73.6681 12.3436 73.9983 12.4122V13.0307C73.6921 12.9693 73.38 12.9427 73.0679 12.9514C71.8256 12.9514 71.0908 13.3267 71.0908 14.2994C71.0908 15.1505 71.6564 15.584 72.5551 15.584C73.0738 15.5944 73.5813 15.4327 73.9983 15.1241V15.8166C73.533 16.1372 72.9772 16.3002 72.4124 16.2818C71.1542 16.2818 70.2979 15.584 70.2979 14.3417C70.2979 12.851 71.4926 12.3223 72.9992 12.3223" fill="#1D5883"/>
<path d="M79.4961 10.0441C79.8564 9.7677 80.3002 9.62226 80.7542 9.63179C80.8593 9.63207 80.9639 9.64449 81.0661 9.66879V10.4036H80.8811C80.3946 10.3708 79.9109 10.501 79.5066 10.7736L79.4961 10.0441ZM77.9419 9.74809H78.7666V16.1657H77.9578L77.9419 9.74809Z" fill="#1D5883"/>
<path d="M85.2898 15.6104C85.6338 15.6049 85.9645 15.4767 86.2223 15.2489C86.4801 15.0211 86.6481 14.7087 86.696 14.3681H87.4836C87.4836 15.457 86.6484 16.2024 85.2951 16.3187L85.2898 15.6104ZM83.4554 12.4121H86.807C86.7805 11.228 86.347 10.4562 85.2898 10.2976V9.61035C86.9233 9.75308 87.6052 10.8421 87.6052 12.5918V13.0412H83.4554V12.4121ZM84.5127 16.3187C82.8686 16.1918 81.9541 15.124 81.9541 12.9778C81.9541 10.8315 82.8792 9.75308 84.5127 9.61035V10.3029C83.355 10.4456 82.7629 11.2808 82.7629 12.946C82.7629 14.6112 83.3285 15.4359 84.5127 15.5892V16.3187Z" fill="#1D5883"/>
<path d="M92.2414 13.5963L94.0651 16.1654H93.1665L91.8079 14.2359L92.2414 13.5963ZM93.0925 9.76367H93.9911L89.7092 16.1654H88.837L93.0925 9.76367ZM88.6572 9.76367H89.5453L90.9726 11.7831L90.5339 12.4121L88.6572 9.76367Z" fill="#1D5883"/>
<path d="M99.7585 15.4045H103.612V16.1658H99.7427L99.7585 15.4045ZM99.7585 10.8318H102.444V11.5878H99.7585V10.8318ZM98.2043 8.66971H99.0026V16.1658H98.2043V8.66971ZM98.2043 7.19482H103.491V7.92963H98.2043V7.19482Z" fill="#1D5883"/>
<path d="M105.325 7.0415H106.123V15.0186C106.123 15.3939 106.261 15.5472 106.536 15.5472H106.959V16.1763C106.735 16.227 106.506 16.2519 106.277 16.2503C105.558 16.2503 105.325 15.8908 105.325 15.193V7.0415Z" fill="#1D5883"/>
<path d="M111.568 15.6104C111.911 15.6036 112.241 15.4749 112.498 15.2472C112.754 15.0196 112.922 14.7079 112.969 14.3681H113.757C113.73 15.457 112.922 16.2024 111.568 16.3187V15.6104ZM109.734 12.4121H113.086C113.086 11.228 112.626 10.4562 111.568 10.2976V9.61035C113.202 9.75308 113.884 10.8421 113.884 12.5918V13.0412H109.734V12.4121ZM110.791 16.3187C109.147 16.1918 108.233 15.124 108.233 12.9778C108.233 10.8315 109.158 9.75308 110.791 9.61035V10.3029C109.634 10.4456 109.041 11.2808 109.041 12.946C109.041 14.6112 109.607 15.4359 110.791 15.5892V16.3187Z" fill="#1D5883"/>
<path d="M118.663 12.8088L121.142 16.1656H120.19L118.076 13.3215L118.663 12.8088ZM117.357 12.0792L119.752 9.76382H120.777L117.357 13.0414V12.0792ZM115.803 7.0625H116.612V16.1656H115.803V7.0625Z" fill="#1D5883"/>
<path d="M123.008 11.0113H123.817V14.8016C123.817 15.3303 124.034 15.5735 124.509 15.5735C124.674 15.5774 124.838 15.5476 124.991 15.4858C125.143 15.4239 125.282 15.3314 125.397 15.214V15.9329C125.254 16.0603 125.087 16.1578 124.905 16.2195C124.724 16.2812 124.531 16.306 124.34 16.2924C123.362 16.2924 123.003 15.8589 123.003 14.8545L123.008 11.0113ZM123.008 7.60693H123.817V9.19284H123.008V7.60693ZM121.697 9.76376H125.656V10.3823H121.697V9.76376Z" fill="#1D5883"/>
<path d="M128.918 10.0441C129.278 9.7677 129.722 9.62226 130.176 9.63179C130.281 9.63207 130.386 9.64449 130.488 9.66879V10.4036H130.292C129.806 10.3708 129.322 10.501 128.918 10.7736V10.0441ZM127.364 9.74809H128.173V16.1657H127.364V9.74809Z" fill="#1D5883"/>
<path d="M134.712 15.5999C135.933 15.4572 136.451 14.5427 136.451 13.0044C136.451 11.466 135.923 10.4722 134.712 10.3189V9.62109C136.398 9.7744 137.26 10.9955 137.26 13.0044C137.26 15.0132 136.398 16.1762 134.712 16.3189V15.5999ZM133.956 9.62109V10.3189C132.735 10.4722 132.206 11.4449 132.206 13.0044C132.206 14.5638 132.735 15.4572 133.956 15.5999V16.3189C132.27 16.1656 131.397 15.0079 131.397 13.0044C131.397 11.0008 132.27 9.7744 133.956 9.62109Z" fill="#1D5883"/>
<path d="M141.473 9.62109C142.694 9.72682 143.403 10.3559 143.413 11.3444H142.615C142.615 10.7418 142.218 10.3823 141.473 10.2872V9.62109ZM141.674 15.637C142.509 15.5471 143.001 15.1612 143.001 14.4052C143.001 13.903 142.731 13.4907 142.012 13.348C141.484 13.2317 140.712 13.1682 140.236 13.0414C139.843 12.9753 139.486 12.7726 139.227 12.4689C138.969 12.1652 138.827 11.7801 138.825 11.3814C138.825 10.3242 139.618 9.73739 140.728 9.63167V10.303C140.046 10.3929 139.618 10.7629 139.618 11.3603C139.624 11.6162 139.722 11.8612 139.895 12.0498C140.068 12.2383 140.304 12.3578 140.559 12.3859C141.124 12.518 141.88 12.5814 142.329 12.6977C142.739 12.7546 143.114 12.9598 143.383 13.2744C143.652 13.5891 143.796 13.9914 143.788 14.4052C143.788 15.5365 143.022 16.229 141.674 16.3189V15.637ZM139.417 14.2995C139.417 15.1083 140.019 15.5471 140.918 15.637V16.3189C139.464 16.2185 138.618 15.4836 138.618 14.2995H139.417Z" fill="#1D5883"/>
<path d="M145.956 11.0113H146.765V14.8016C146.765 15.3303 146.987 15.5735 147.463 15.5735C147.627 15.5765 147.791 15.5462 147.943 15.4845C148.096 15.4227 148.235 15.3307 148.351 15.214V15.9329C148.06 16.1877 147.68 16.3169 147.293 16.2924C146.316 16.2924 145.956 15.8589 145.956 14.8545V11.0113ZM145.956 7.60693H146.765V9.19284H145.956V7.60693ZM144.645 9.76376H148.604V10.3823H144.645V9.76376Z" fill="#1D5883"/>
<path d="M151.871 10.0443C152.231 9.76633 152.675 9.62072 153.129 9.63195C153.233 9.63221 153.336 9.64463 153.436 9.66896V10.4038H153.246C152.759 10.3705 152.275 10.5008 151.871 10.7738V10.0443ZM150.285 9.74825H151.094V16.1659H150.285V9.74825Z" fill="#1D5883"/>
<path d="M157.665 15.5999C158.886 15.4572 159.399 14.5427 159.399 13.0044C159.399 11.466 158.87 10.4722 157.665 10.3189V9.62109C159.346 9.7744 160.208 10.9955 160.208 13.0044C160.208 15.0132 159.346 16.1762 157.665 16.3189V15.5999ZM156.904 9.62109V10.3189C155.688 10.4722 155.159 11.4449 155.159 13.0044C155.159 14.5638 155.688 15.4572 156.904 15.5999V16.3189C155.223 16.1656 154.351 15.0079 154.351 13.0044C154.351 11.0008 155.223 9.7744 156.904 9.62109Z" fill="#1D5883"/>
<path d="M162.973 9.76392V16.1921C162.973 17.2494 162.687 18.0053 162.164 18.3912V9.76392H162.973ZM161.995 7.7604C161.995 7.68775 162.009 7.61585 162.038 7.54917C162.067 7.4825 162.109 7.42249 162.162 7.37288C162.216 7.32328 162.278 7.28515 162.347 7.26087C162.415 7.23659 162.488 7.22668 162.56 7.23177C162.701 7.23177 162.835 7.28746 162.934 7.3866C163.033 7.48574 163.089 7.6202 163.089 7.7604C163.089 7.9006 163.033 8.03506 162.934 8.1342C162.835 8.23334 162.701 8.28903 162.56 8.28903C162.488 8.29412 162.415 8.28421 162.347 8.25993C162.278 8.23565 162.216 8.19752 162.162 8.14792C162.109 8.09831 162.067 8.0383 162.038 7.97163C162.009 7.90495 161.995 7.83305 161.995 7.7604ZM161.582 18.6186C161.362 18.7241 161.118 18.7732 160.874 18.7613C160.62 18.7605 160.367 18.734 160.118 18.682V18.0159H160.737C161.035 18.0333 161.331 17.9556 161.582 17.7939V18.6186Z" fill="#1D5883"/>
<path d="M22.2396 24.0001L37.9506 14.9288L34.3031 12.8301L18.592 21.8962L22.2396 24.0001Z" fill="#1D5883"/>
<path d="M12.5657 18.4176L16.208 20.5216L40.8159 6.31189L40.8212 20.585L44.4635 18.4811L44.4582 0L12.5657 18.4176Z" fill="#1D5883"/>
<path d="M22.2449 5.86768L6.53394 14.9338L10.1762 17.0377L25.8872 7.96635L22.2449 5.86768Z" fill="#1D5883"/>
<path d="M10.1921 10.0916L13.8344 7.98766L0 0V18.4652L3.64758 20.5692L3.64229 6.31189L10.1921 10.0916Z" fill="#1D5883"/>
</g>
<defs>
<clipPath id="clip0_4_2535">
<rect width="163.11" height="24" fill="white"/>
</clipPath>
</defs>
</svg>
